<svg xmlns="http://www.w3.org/2000/svg" viewBox="0 0 448.06 108.42">
  <g>
    <path d="M447.68,47.14q0,24.53,0,49.07c0,6.29-2.7,9-8.91,9H388.51c-3.86,0-3.87,0-3.87-3.75,0-18.12-.16-36.25.05-54.36.17-13.85-5.2-25-15.14-34.33a18.88,18.88,0,0,0-2.12-1.51l.41-.78c1-.08,2.06-.21,3.09-.21,13.32,0,26.64-.06,40,0C432.46,10.33,447.68,25.62,447.68,47.14Z" style="fill: #282828;stroke: #282828;stroke-miterlimit: 10;stroke-width: 0.75px"/>
    <path d="M421.14,18.6c0-3.62-.14-7.24,0-10.85.2-4.13,1.36-5.12,5.44-5.13,4.4,0,8.8,0,13.2,0,3.07,0,4.58,1.4,4.72,4.37a71.92,71.92,0,0,1,0,7.63c-.16,2.6-1.6,4.13-4.34,4.15-2.93,0-5.87.07-8.8,0-1.65,0-2.27.61-2.21,2.25.08,2.54.06,18,0,20.58-.05,2.11-.13,2.63-.46,3.12a4.29,4.29,0,0,1-3.24,1.66,4.43,4.43,0,0,1-4-1.91l0-.05a4.31,4.31,0,0,1-.26-1.41C421.21,42.43,421.15,24.89,421.14,18.6Z" style="fill: #cc0d0d"/>
    <g>
      <path d="M282.09,8.1c-1.59-.45-3.37-.91-5.32-1.38" style="fill: none;stroke: #cc0d0d;stroke-linecap: square;stroke-linejoin: round;stroke-width: 5px"/>
      <path d="M266.9,4.68c-18.78-3.25-46.28-4.4-74.74,7.8-24.86,10.67-63.41,37.08-61.41,65.8.54,7.71,4.4,21.93,15.35,26.32,9.4,3.77,19-1.72,19.74-2.19,10.4-6.19,12.72-18.64,13.16-21.93,3.46-25.52-29.68-57-63.6-68-34.22-11.12-64.51.07-74.58,4.39a110,110,0,0,0-29.74,19" style="fill: none;stroke: #cc0d0d;stroke-linecap: square;stroke-linejoin: round;stroke-width: 5px;stroke-dasharray: 11.092991828918457,10.084538459777832"/>
      <path d="M7.38,39.26C6,40.66,4.67,42,3.53,43.19" style="fill: none;stroke: #cc0d0d;stroke-linecap: square;stroke-linejoin: round;stroke-width: 5px"/>
    </g>
    <path d="M376.21,46.94a45.19,45.19,0,0,0-.59-7.26,35,35,0,0,0-39.77-28.91c-.68.09-1.34.22-2,.37A37.41,37.41,0,0,0,316,20.4a29.26,29.26,0,0,0-3.07,3.33,33.71,33.71,0,0,0-7,15.91,38.17,38.17,0,0,0-.48,5.11c-.5,17.5-.18,35.05-.09,52.57,0,4.12,3,6.91,7.11,7.13,2.92.15,5.86.24,8.79.26q20.14.14,40.23.2c4.78,0,9.54,0,14.76,0v-3.33Q376.25,74.27,376.21,46.94ZM326.33,50a7.73,7.73,0,0,1-4.65-1.89,3,3,0,0,1-.88-1.64,3.73,3.73,0,0,1,2.9-4,16.78,16.78,0,0,1,4.08-.42c8.68,0,17.41,0,26.12,0a25.6,25.6,0,0,1,2.63.16h.05c2.41.2,4.12,1.25,4.3,3.84.15,2.15-1.71,3.9-4.59,4s-5.7.09-8.55,0C347.74,50,327.1,50,326.33,50Z" style="fill: #282828"/>
    <path d="M325.76,36.68c-4,.06-7.48-1.54-8.62-4l-4.25-9L306.13,9.56,289,24.79c-2.91,2.58-2.06,6.16,1.91,8l15,6.87,14.87,6.82,7.86,3.59c4,.11,8,0,12.06,0v0l7,0,8.84-7.87,7-6.23Zm41.65-11.43L335.85,10.77,320.74,3.84c-3-1.36-7.15-.9-9.35,1a3.14,3.14,0,0,0-1,3.8L316,20.4l5.44,11.43c.57,1.2,2.32,2,4.29,2l37.84-.74a8.41,8.41,0,0,0,5.33-1.83C371,29.3,370.4,26.63,367.41,25.25Z" style="fill: #cc0d0d"/>
  </g>
</svg>
