<svg xmlns="http://www.w3.org/2000/svg" viewBox="0 0 142.89 102.96">
  <g>
    <path d="M142.51,44.54q0,24.53,0,49.07c0,6.29-2.7,9-8.91,9H83.34c-3.86,0-3.87,0-3.87-3.75,0-18.12-.16-36.25,0-54.36.17-13.85-5.2-25-15.14-34.33a18.88,18.88,0,0,0-2.12-1.51l.41-.78c1-.08,2.06-.21,3.09-.21,13.32,0,26.64-.06,40,0C127.29,7.73,142.51,23,142.51,44.54Z" style="fill: #282828;stroke: #282828;stroke-miterlimit: 10;stroke-width: 0.75px"/>
    <path d="M116,16c0-3.62-.14-7.24,0-10.85C116.2,1,117.35,0,121.44,0c4.4,0,8.8,0,13.2,0,3.07,0,4.57,1.4,4.71,4.37a71.73,71.73,0,0,1,0,7.62c-.16,2.61-1.59,4.14-4.34,4.16-2.93,0-5.86.07-8.8,0-1.65,0-2.26.61-2.21,2.24.09,2.54.06,18.05,0,20.59,0,2.1-.13,2.62-.45,3.11a4.38,4.38,0,0,1-3.24,1.67,4.43,4.43,0,0,1-4-1.91l0,0a4.07,4.07,0,0,1-.26-1.42C116,39.84,116,22.3,116,16Z" style="fill: #cc0d0d"/>
    <path d="M71,44.35a45,45,0,0,0-.59-7.26A35,35,0,0,0,30.67,8.18c-.67.08-1.33.22-2,.37a37.39,37.39,0,0,0-17.88,9.26,29.26,29.26,0,0,0-3.07,3.33A33.66,33.66,0,0,0,.76,37a38.47,38.47,0,0,0-.49,5.11C-.23,59.66.1,77.2.19,94.73c0,4.12,3,6.91,7.1,7.13,2.92.15,5.86.24,8.8.26q20.13.13,40.23.2c4.78,0,9.54,0,14.76,0V99Q71.08,71.68,71,44.35Zm-49.87,3a7.73,7.73,0,0,1-4.66-1.89,3,3,0,0,1-.87-1.65,3.71,3.71,0,0,1,2.89-4,16.83,16.83,0,0,1,4.08-.42c8.69,0,17.42,0,26.13,0a26,26,0,0,1,2.63.16h0c2.41.19,4.13,1.24,4.3,3.83.15,2.15-1.71,3.91-4.58,4s-5.71.08-8.56,0C42.56,47.44,21.92,47.44,21.16,47.4Z" style="fill: #282828"/>
  </g>
</svg>
