<svg xmlns="http://www.w3.org/2000/svg" viewBox="0 0 370.15 108.42">
  <g>
    <g>
      <path d="M282.09,8.1c-1.59-.45-3.37-.91-5.32-1.38" style="fill: none;stroke: #cc0d0d;stroke-linecap: square;stroke-linejoin: round;stroke-width: 5px"/>
      <path d="M266.9,4.68c-18.78-3.25-46.28-4.4-74.74,7.8-24.86,10.67-63.41,37.08-61.41,65.8.54,7.71,4.4,21.93,15.35,26.32,9.4,3.77,19-1.72,19.74-2.19,10.4-6.19,12.72-18.64,13.16-21.93,3.46-25.52-29.68-57-63.6-68-34.22-11.12-64.51.07-74.58,4.39a110,110,0,0,0-29.74,19" style="fill: none;stroke: #cc0d0d;stroke-linecap: square;stroke-linejoin: round;stroke-width: 5px;stroke-dasharray: 11.092991828918457,10.084538459777832"/>
      <path d="M7.38,39.26C6,40.66,4.67,42,3.53,43.19" style="fill: none;stroke: #cc0d0d;stroke-linecap: square;stroke-linejoin: round;stroke-width: 5px"/>
    </g>
    <path d="M325.76,36.67c-4,.07-7.48-1.53-8.62-4l-4.25-9L306.13,9.56,289,24.79c-2.91,2.58-2.06,6.16,1.91,8l15,6.87,14.87,6.82,17.37,7.95a5.61,5.61,0,0,0,6.29-1.12L347.74,50l8.84-7.87,7-6.23Zm41.65-11.42L335.85,10.77,320.74,3.84c-3-1.36-7.15-.9-9.35,1a3.14,3.14,0,0,0-1,3.8L316,20.4l5.44,11.43c.57,1.2,2.32,2,4.29,2l37.84-.74a8.41,8.41,0,0,0,5.33-1.83C371,29.3,370.4,26.63,367.41,25.25Z" style="fill: #cc0d0d"/>
  </g>
</svg>
