<svg xmlns="http://www.w3.org/2000/svg" viewBox="0 0 510.9 318.43">
  <g>
    <path d="M95.24,179.13a113.92,113.92,0,0,0,8.77,35.1c14.68,34.12,45.69,58.85,76.77,68,68.47,20.14,143.51-33.61,160.11-87.73,2.6-8.48,11.49-37.46-4.38-52.64-12.53-12-36.85-11.9-50.45,0-15.18,13.27-12,36.58-11,43.86,6.22,45.24,53.23,72.71,79,87.74,53.56,31.29,108.9,39.26,151.35,39.48" style="fill: none;stroke: #cc0d0d;stroke-linecap: round;stroke-linejoin: round;stroke-width: 11px"/>
    <g>
      <path d="M86.15,159.46H9.71c-8,0-9.33-1.26-9.33-9.11q0-68,0-136c0-9.45,4.48-14,13.89-14q71.67,0,143.32,0c10,0,14.39,4.42,14.4,14.42q0,67.77,0,135.52c0,7.57-1.56,9.12-9,9.13ZM86.1,98.67c16.23,0,32.46,0,48.69,0,8.35,0,13-4.6,13.05-12.89q.09-24.1,0-48.21c0-8.38-4.6-13-13-13q-48.69-.07-97.37,0c-8.45,0-13.17,4.77-13.21,13.33q-.12,23.65,0,47.3c0,8.69,4.88,13.42,13.58,13.44C53.94,98.7,70,98.67,86.1,98.67Zm30.72,24.19c-8.48,0-17-.09-25.43.07-1.64,0-4.4.71-4.67,1.65-.8,2.8-1.33,6.1-.51,8.75.42,1.36,3.92,2.43,6.06,2.49,9.83.26,19.67.12,29.51.12,6.82,0,13.63.11,20.44-.06,4.5-.11,5.6-2.12,5.64-8.4,0-4.06-2.32-4.67-5.61-4.64C133.78,122.91,125.3,122.86,116.82,122.86ZM30.67,137.08a8.24,8.24,0,0,0,8.16-7.65c.22-4.08-3.92-8.33-8-8.26a8.41,8.41,0,0,0-7.9,8A8.17,8.17,0,0,0,30.67,137.08Z" style="fill: #282828;stroke: #282828;stroke-miterlimit: 10;stroke-width: 0.75px"/>
      <path d="M159.14,172.67v23.4H13.2v-23.4Z" style="fill: #282828;stroke: #282828;stroke-miterlimit: 10;stroke-width: 0.75px"/>
    </g>
    <g>
      <rect x="60.4" y="31.08" width="8.37" height="17.8" style="fill: #cc0d0d"/>
      <rect x="97.98" y="37.04" width="8.37" height="14.65" transform="translate(146.53 -57.8) rotate(90)" style="fill: #cc0d0d"/>
      <rect x="77.79" y="47.56" width="8.37" height="26.03" style="fill: #cc0d0d"/>
      <rect x="74.88" y="63.49" width="8.37" height="14.19" transform="translate(149.65 -8.48) rotate(90)" style="fill: #cc0d0d"/>
      <rect x="63.12" y="82.92" width="37.7" height="8.08" style="fill: #cc0d0d"/>
      <rect x="56.78" y="77.01" width="8.37" height="8.08" style="fill: #cc0d0d"/>
      <rect x="98.65" y="77.01" width="8.37" height="8.08" style="fill: #cc0d0d"/>
    </g>
  </g>
</svg>
